<svg id="Layer_1" data-name="Layer 1" xmlns="http://www.w3.org/2000/svg" viewBox="0 0 638 74.87"><defs><style>.cls-1{fill:#ff3008;}</style></defs><title>DoorDash Logo Vector</title><path class="cls-1" d="M307.66,480.33A33.56,33.56,0,0,0,278,462.56h-93.8a3.22,3.22,0,0,0-3.19,3.3,2.88,2.88,0,0,0,1,2.23l20.42,20.53a9.64,9.64,0,0,0,6.8,2.87h66.15a8.51,8.51,0,1,1,.22,17H229.92a3.22,3.22,0,0,0-3.19,3.29,2.89,2.89,0,0,0,1,2.24L248,534.56a9.69,9.69,0,0,0,6.81,2.88h20.63c26.91,0,47.22-28.72,32.22-57.11" transform="translate(-181 -462.56)"/><path class="cls-1" d="M352.44,483.62v32.76h8.4a16.16,16.16,0,0,0,16-16.38h0a16.06,16.06,0,0,0-15.42-16.38h-8.93Zm8.4-10.21c15.63,0,27.44,11.81,27.44,26.59s-11.81,26.69-27.44,26.69H342.33a1.28,1.28,0,0,1-1.27-1.27V474.79a1.29,1.29,0,0,1,1.27-1.27Z" transform="translate(-181 -462.56)"/><path class="cls-1" d="M428.37,517.55A17.5,17.5,0,1,0,410.93,500h0a17.61,17.61,0,0,0,17.44,17.55m0-45.31c16.38,0,28.93,12.66,28.93,27.76s-12.55,27.76-28.93,27.76S399.55,515.21,399.55,500s12.55-27.76,28.82-27.76" transform="translate(-181 -462.56)"/><path class="cls-1" d="M497.29,517.55A17.5,17.5,0,1,0,479.74,500a17.47,17.47,0,0,0,17.55,17.55h0m0-45.31c16.38,0,28.93,12.55,28.93,27.76s-12.66,27.76-28.93,27.76S468.36,515.21,468.36,500s12.55-27.76,28.93-27.76" transform="translate(-181 -462.56)"/><path class="cls-1" d="M564.5,483.62H552.7v14h11.8a6.9,6.9,0,0,0,7.23-6.59v-.22a7,7,0,0,0-6.7-7.23h-.53m-23.18-8.83a1.29,1.29,0,0,1,1.27-1.27h22.23c10.64,0,18.29,7.76,18.29,17.55a17.27,17.27,0,0,1-9.46,15.63l10.21,18.08a1.34,1.34,0,0,1-.32,1.81,1.15,1.15,0,0,1-.85.21h-9a1.31,1.31,0,0,1-1.17-.74l-9.89-18H552.7v17.23a1.29,1.29,0,0,1-1.28,1.28h-8.61a1.29,1.29,0,0,1-1.28-1.28Z" transform="translate(-181 -462.56)"/><path class="cls-1" d="M612.89,483.94V516.7h8.4a16.17,16.17,0,0,0,16-16.38h0a16,16,0,0,0-15.42-16.38h-8.94Zm8.3-10.32c15.63,0,27.44,11.81,27.44,26.7S636.82,527,621.19,527h-18.4a1.29,1.29,0,0,1-1.28-1.27V475a1.29,1.29,0,0,1,1.28-1.28Z" transform="translate(-181 -462.56)"/><path class="cls-1" d="M683.4,486.71l-6.49,17.54h13ZM673.19,514l-4.25,11.7a1.49,1.49,0,0,1-1.28,1h-9.14a1.31,1.31,0,0,1-1.49-1.17,1.39,1.39,0,0,1,.1-.63L677,474.37a1.24,1.24,0,0,1,1.28-.85h10.31a1.2,1.2,0,0,1,1.28.85l19.89,50.52a1.39,1.39,0,0,1-.64,1.8,1.32,1.32,0,0,1-.64.11h-9.14a1.18,1.18,0,0,1-1.28-1l-4.26-11.7H673.19V514Z" transform="translate(-181 -462.56)"/><path class="cls-1" d="M720.41,487.77c0-8.4,7.23-15.63,18.61-15.63a23.89,23.89,0,0,1,16.59,6.27,1.45,1.45,0,0,1,.11,1.92l-.11.1-5.1,5.11a1.35,1.35,0,0,1-1.91,0h0a13.5,13.5,0,0,0-8.83-3.51c-4.57,0-8,2.66-8,5.74,0,9.89,27,4.15,27,23.18,0,9.68-7.34,16.91-20.21,16.91a26.53,26.53,0,0,1-19.25-7.76,1.46,1.46,0,0,1-.11-1.91l.11-.11,4.89-4.89a1.36,1.36,0,0,1,1.92,0h0A17.42,17.42,0,0,0,737.75,518c5.74,0,9.46-3.08,9.46-6.91.11-9.89-26.8-4.15-26.8-23.29" transform="translate(-181 -462.56)"/><path class="cls-1" d="M807.83,474.69v20H785v-20a1.29,1.29,0,0,0-1.28-1.28h-8.61a1.29,1.29,0,0,0-1.28,1.28v50.52a1.29,1.29,0,0,0,1.28,1.27h8.61a1.29,1.29,0,0,0,1.28-1.27V504.89h22.86v20.32a1.29,1.29,0,0,0,1.28,1.27h8.61a1.29,1.29,0,0,0,1.28-1.27V474.69a1.29,1.29,0,0,0-1.28-1.28h-8.61A1.23,1.23,0,0,0,807.83,474.69Z" transform="translate(-181 -462.56)"/></svg>